<?xml version="1.0" encoding="UTF-8" standalone="no"?>
<!DOCTYPE svg PUBLIC "-//W3C//DTD SVG 1.1//EN"
 "http://www.w3.org/Graphics/SVG/1.1/DTD/svg11.dtd">
<!-- Generated by graphviz version 2.43.0 (0)
 -->
<!-- Title: ERD Pages: 1 -->
<svg width="1061pt" height="1243pt"
 viewBox="0.00 0.00 1061.00 1242.50" xmlns="http://www.w3.org/2000/svg" xmlns:xlink="http://www.w3.org/1999/xlink">
<g id="graph0" class="graph" transform="scale(1 1) rotate(0) translate(4 1238.5)">
<title>ERD</title>
<polygon fill="white" stroke="transparent" points="-4,4 -4,-1238.5 1057,-1238.5 1057,4 -4,4"/>
<!-- CUSTOMER -->
<g id="node1" class="node">
<title>CUSTOMER</title>
<path fill="lightgray" stroke="transparent" d="M104,-949.5C104,-949.5 12,-949.5 12,-949.5 6,-949.5 0,-943.5 0,-937.5 0,-937.5 0,-837.5 0,-837.5 0,-831.5 6,-825.5 12,-825.5 12,-825.5 104,-825.5 104,-825.5 110,-825.5 116,-831.5 116,-837.5 116,-837.5 116,-937.5 116,-937.5 116,-943.5 110,-949.5 104,-949.5"/>
<polygon fill="#1f77b4" stroke="transparent" points="9,-925.5 9,-944.5 107,-944.5 107,-925.5 9,-925.5"/>
<text text-anchor="start" x="11" y="-932.3" font-family="Times,serif" font-weight="bold" font-size="14.00" fill="white">CUSTOMER</text>
<text text-anchor="start" x="11" y="-912.3" font-family="Times,serif" font-size="14.00">고객번호 (PK)</text>
<text text-anchor="start" x="11" y="-893.3" font-family="Times,serif" font-size="14.00">이름</text>
<text text-anchor="start" x="11" y="-874.3" font-family="Times,serif" font-size="14.00">유형</text>
<text text-anchor="start" x="11" y="-855.3" font-family="Times,serif" font-size="14.00">휴대전화번호</text>
<text text-anchor="start" x="11" y="-836.3" font-family="Times,serif" font-size="14.00">이메일</text>
<polygon fill="none" stroke="lightblue" points="8,-829.5 8,-945.5 108,-945.5 108,-829.5 8,-829.5"/>
</g>
<!-- DRIVER -->
<g id="node2" class="node">
<title>DRIVER</title>
<path fill="lightgray" stroke="transparent" d="M312,-987.5C312,-987.5 207,-987.5 207,-987.5 201,-987.5 195,-981.5 195,-975.5 195,-975.5 195,-799.5 195,-799.5 195,-793.5 201,-787.5 207,-787.5 207,-787.5 312,-787.5 312,-787.5 318,-787.5 324,-793.5 324,-799.5 324,-799.5 324,-975.5 324,-975.5 324,-981.5 318,-987.5 312,-987.5"/>
<polygon fill="#1f77b4" stroke="transparent" points="204.5,-963.5 204.5,-982.5 315.5,-982.5 315.5,-963.5 204.5,-963.5"/>
<text text-anchor="start" x="228" y="-970.3" font-family="Times,serif" font-weight="bold" font-size="14.00" fill="white">DRIVER</text>
<text text-anchor="start" x="206.5" y="-950.3" font-family="Times,serif" font-size="14.00">운전자번호 (PK)</text>
<text text-anchor="start" x="206.5" y="-931.3" font-family="Times,serif" font-size="14.00">고객번호 (FK)</text>
<text text-anchor="start" x="206.5" y="-912.3" font-family="Times,serif" font-size="14.00">이름</text>
<text text-anchor="start" x="206.5" y="-893.3" font-family="Times,serif" font-size="14.00">생년월일</text>
<text text-anchor="start" x="206.5" y="-874.3" font-family="Times,serif" font-size="14.00">면허구분</text>
<text text-anchor="start" x="206.5" y="-855.3" font-family="Times,serif" font-size="14.00">면허종류</text>
<text text-anchor="start" x="206.5" y="-836.3" font-family="Times,serif" font-size="14.00">면허번호</text>
<text text-anchor="start" x="206.5" y="-817.3" font-family="Times,serif" font-size="14.00">발급일</text>
<text text-anchor="start" x="206.5" y="-798.3" font-family="Times,serif" font-size="14.00">유효기한</text>
<polygon fill="none" stroke="lightblue" points="203,-791.5 203,-983.5 316,-983.5 316,-791.5 203,-791.5"/>
</g>
<!-- CUSTOMER&#45;&gt;DRIVER -->
<g id="edge1" class="edge">
<title>CUSTOMER&#45;&gt;DRIVER</title>
<path fill="none" stroke="black" d="M116.17,-887.5C138.11,-887.5 163.43,-887.5 186.58,-887.5"/>
<polygon fill="black" stroke="black" points="186.66,-887.5 194.66,-891.1 190.66,-887.5 194.66,-887.5 194.66,-887.5 194.66,-887.5 190.66,-887.5 194.66,-883.9 186.66,-887.5 186.66,-887.5"/>
</g>
<!-- RENTAL -->
<g id="node5" class="node">
<title>RENTAL</title>
<path fill="lightgray" stroke="transparent" d="M549,-832C549,-832 415,-832 415,-832 409,-832 403,-826 403,-820 403,-820 403,-625 403,-625 403,-619 409,-613 415,-613 415,-613 549,-613 549,-613 555,-613 561,-619 561,-625 561,-625 561,-820 561,-820 561,-826 555,-832 549,-832"/>
<polygon fill="#1f77b4" stroke="transparent" points="412,-807.5 412,-826.5 552,-826.5 552,-807.5 412,-807.5"/>
<text text-anchor="start" x="449" y="-814.3" font-family="Times,serif" font-weight="bold" font-size="14.00" fill="white">RENTAL</text>
<text text-anchor="start" x="414" y="-794.3" font-family="Times,serif" font-size="14.00">대여계약번호 (PK)</text>
<text text-anchor="start" x="414" y="-775.3" font-family="Times,serif" font-size="14.00">대표운전자번호 (FK)</text>
<text text-anchor="start" x="414" y="-756.3" font-family="Times,serif" font-size="14.00">차량관리번호 (FK)</text>
<text text-anchor="start" x="414" y="-737.3" font-family="Times,serif" font-size="14.00">대여일시</text>
<text text-anchor="start" x="414" y="-718.3" font-family="Times,serif" font-size="14.00">반납예정일시</text>
<text text-anchor="start" x="414" y="-699.3" font-family="Times,serif" font-size="14.00">반납일시</text>
<text text-anchor="start" x="414" y="-680.3" font-family="Times,serif" font-size="14.00">보험적용여부</text>
<text text-anchor="start" x="414" y="-661.3" font-family="Times,serif" font-size="14.00">대여유류량</text>
<text text-anchor="start" x="414" y="-642.3" font-family="Times,serif" font-size="14.00">반납유류량</text>
<text text-anchor="start" x="414" y="-623.3" font-family="Times,serif" font-size="14.00">상태</text>
<polygon fill="none" stroke="lightblue" points="411,-617 411,-828 553,-828 553,-617 411,-617"/>
</g>
<!-- DRIVER&#45;&gt;RENTAL -->
<g id="edge2" class="edge">
<title>DRIVER&#45;&gt;RENTAL</title>
<path fill="none" stroke="black" d="M324.28,-839.78C346.72,-822.98 372.3,-803.84 396.19,-785.96"/>
<polygon fill="black" stroke="black" points="396.48,-785.75 405.04,-783.84 399.68,-783.35 402.88,-780.95 402.88,-780.95 402.88,-780.95 399.68,-783.35 400.73,-778.07 396.48,-785.75 396.48,-785.75"/>
</g>
<!-- RENTAL_DRIVER -->
<g id="node6" class="node">
<title>RENTAL_DRIVER</title>
<path fill="lightgray" stroke="transparent" d="M788,-1234.5C788,-1234.5 654,-1234.5 654,-1234.5 648,-1234.5 642,-1228.5 642,-1222.5 642,-1222.5 642,-1160.5 642,-1160.5 642,-1154.5 648,-1148.5 654,-1148.5 654,-1148.5 788,-1148.5 788,-1148.5 794,-1148.5 800,-1154.5 800,-1160.5 800,-1160.5 800,-1222.5 800,-1222.5 800,-1228.5 794,-1234.5 788,-1234.5"/>
<polygon fill="#1f77b4" stroke="transparent" points="651,-1210.5 651,-1229.5 791,-1229.5 791,-1210.5 651,-1210.5"/>
<text text-anchor="start" x="653" y="-1217.3" font-family="Times,serif" font-weight="bold" font-size="14.00" fill="white">RENTAL_DRIVER</text>
<text text-anchor="start" x="653" y="-1197.3" font-family="Times,serif" font-size="14.00">대여계약번호 (FK)</text>
<text text-anchor="start" x="653" y="-1178.3" font-family="Times,serif" font-size="14.00">운전자번호 (FK)</text>
<text text-anchor="start" x="653" y="-1159.3" font-family="Times,serif" font-size="14.00">순번</text>
<polygon fill="none" stroke="lightblue" points="650,-1152.5 650,-1230.5 792,-1230.5 792,-1152.5 650,-1152.5"/>
</g>
<!-- DRIVER&#45;&gt;RENTAL_DRIVER -->
<g id="edge5" class="edge">
<title>DRIVER&#45;&gt;RENTAL_DRIVER</title>
<path fill="none" stroke="black" d="M324.39,-929.77C409.35,-985.98 559.1,-1085.05 647.98,-1143.85"/>
<polygon fill="black" stroke="black" points="648.13,-1143.95 652.81,-1151.37 651.46,-1146.16 654.8,-1148.36 654.8,-1148.36 654.8,-1148.36 651.46,-1146.16 656.78,-1145.36 648.13,-1143.95 648.13,-1143.95"/>
</g>
<!-- CAR -->
<g id="node3" class="node">
<title>CAR</title>
<path fill="lightgray" stroke="transparent" d="M319,-435.5C319,-435.5 200,-435.5 200,-435.5 194,-435.5 188,-429.5 188,-423.5 188,-423.5 188,-247.5 188,-247.5 188,-241.5 194,-235.5 200,-235.5 200,-235.5 319,-235.5 319,-235.5 325,-235.5 331,-241.5 331,-247.5 331,-247.5 331,-423.5 331,-423.5 331,-429.5 325,-435.5 319,-435.5"/>
<polygon fill="#1f77b4" stroke="transparent" points="197.5,-411.5 197.5,-430.5 322.5,-430.5 322.5,-411.5 197.5,-411.5"/>
<text text-anchor="start" x="243" y="-418.3" font-family="Times,serif" font-weight="bold" font-size="14.00" fill="white">CAR</text>
<text text-anchor="start" x="199.5" y="-398.3" font-family="Times,serif" font-size="14.00">차량관리번호 (PK)</text>
<text text-anchor="start" x="199.5" y="-379.3" font-family="Times,serif" font-size="14.00">차량번호</text>
<text text-anchor="start" x="199.5" y="-360.3" font-family="Times,serif" font-size="14.00">차량모델</text>
<text text-anchor="start" x="199.5" y="-341.3" font-family="Times,serif" font-size="14.00">연료유형</text>
<text text-anchor="start" x="199.5" y="-322.3" font-family="Times,serif" font-size="14.00">연식</text>
<text text-anchor="start" x="199.5" y="-303.3" font-family="Times,serif" font-size="14.00">주행거리</text>
<text text-anchor="start" x="199.5" y="-284.3" font-family="Times,serif" font-size="14.00">좌석수</text>
<text text-anchor="start" x="199.5" y="-265.3" font-family="Times,serif" font-size="14.00">관리지점번호 (FK)</text>
<text text-anchor="start" x="199.5" y="-246.3" font-family="Times,serif" font-size="14.00">상태</text>
<polygon fill="none" stroke="lightblue" points="196,-239.5 196,-431.5 323,-431.5 323,-239.5 196,-239.5"/>
</g>
<!-- CAR&#45;&gt;RENTAL -->
<g id="edge3" class="edge">
<title>CAR&#45;&gt;RENTAL</title>
<path fill="none" stroke="black" d="M317.57,-435.67C347.19,-487.64 383.53,-551.43 414.42,-605.65"/>
<polygon fill="black" stroke="black" points="414.59,-605.94 415.42,-614.67 416.57,-609.41 418.55,-612.89 418.55,-612.89 418.55,-612.89 416.57,-609.41 421.68,-611.11 414.59,-605.94 414.59,-605.94"/>
</g>
<!-- MAINTENANCE -->
<g id="node12" class="node">
<title>MAINTENANCE</title>
<path fill="lightgray" stroke="transparent" d="M543.5,-143C543.5,-143 420.5,-143 420.5,-143 414.5,-143 408.5,-137 408.5,-131 408.5,-131 408.5,-12 408.5,-12 408.5,-6 414.5,0 420.5,0 420.5,0 543.5,0 543.5,0 549.5,0 555.5,-6 555.5,-12 555.5,-12 555.5,-131 555.5,-131 555.5,-137 549.5,-143 543.5,-143"/>
<polygon fill="#1f77b4" stroke="transparent" points="418,-118.5 418,-137.5 547,-137.5 547,-118.5 418,-118.5"/>
<text text-anchor="start" x="420" y="-125.3" font-family="Times,serif" font-weight="bold" font-size="14.00" fill="white">MAINTENANCE</text>
<text text-anchor="start" x="420" y="-105.3" font-family="Times,serif" font-size="14.00">정비이력번호 (PK)</text>
<text text-anchor="start" x="420" y="-86.3" font-family="Times,serif" font-size="14.00">차량관리번호 (FK)</text>
<text text-anchor="start" x="420" y="-67.3" font-family="Times,serif" font-size="14.00">정비유형</text>
<text text-anchor="start" x="420" y="-48.3" font-family="Times,serif" font-size="14.00">시작일자</text>
<text text-anchor="start" x="420" y="-29.3" font-family="Times,serif" font-size="14.00">완료일자</text>
<text text-anchor="start" x="420" y="-10.3" font-family="Times,serif" font-size="14.00">비용</text>
<polygon fill="none" stroke="lightblue" points="416.5,-4 416.5,-139 547.5,-139 547.5,-4 416.5,-4"/>
</g>
<!-- CAR&#45;&gt;MAINTENANCE -->
<g id="edge12" class="edge">
<title>CAR&#45;&gt;MAINTENANCE</title>
<path fill="none" stroke="black" d="M331.18,-250.88C358.34,-218.36 389.2,-181.42 415.82,-149.54"/>
<polygon fill="black" stroke="black" points="415.95,-149.38 423.85,-145.55 418.52,-146.31 421.08,-143.24 421.08,-143.24 421.08,-143.24 418.52,-146.31 418.32,-140.93 415.95,-149.38 415.95,-149.38"/>
</g>
<!-- REPAIR -->
<g id="node13" class="node">
<title>REPAIR</title>
<path fill="lightgray" stroke="transparent" d="M780.5,-229C780.5,-229 661.5,-229 661.5,-229 655.5,-229 649.5,-223 649.5,-217 649.5,-217 649.5,-60 649.5,-60 649.5,-54 655.5,-48 661.5,-48 661.5,-48 780.5,-48 780.5,-48 786.5,-48 792.5,-54 792.5,-60 792.5,-60 792.5,-217 792.5,-217 792.5,-223 786.5,-229 780.5,-229"/>
<polygon fill="#1f77b4" stroke="transparent" points="659,-204.5 659,-223.5 784,-223.5 784,-204.5 659,-204.5"/>
<text text-anchor="start" x="690.5" y="-211.3" font-family="Times,serif" font-weight="bold" font-size="14.00" fill="white">REPAIR</text>
<text text-anchor="start" x="661" y="-191.3" font-family="Times,serif" font-size="14.00">수리이력번호 (PK)</text>
<text text-anchor="start" x="661" y="-172.3" font-family="Times,serif" font-size="14.00">대여계약번호 (FK)</text>
<text text-anchor="start" x="661" y="-153.3" font-family="Times,serif" font-size="14.00">차량관리번호 (FK)</text>
<text text-anchor="start" x="661" y="-134.3" font-family="Times,serif" font-size="14.00">수리유형</text>
<text text-anchor="start" x="661" y="-115.3" font-family="Times,serif" font-size="14.00">시작일자</text>
<text text-anchor="start" x="661" y="-96.3" font-family="Times,serif" font-size="14.00">완료일자</text>
<text text-anchor="start" x="661" y="-77.3" font-family="Times,serif" font-size="14.00">비용</text>
<text text-anchor="start" x="661" y="-58.3" font-family="Times,serif" font-size="14.00">처리유형</text>
<polygon fill="none" stroke="lightblue" points="657.5,-52 657.5,-225 784.5,-225 784.5,-52 657.5,-52"/>
</g>
<!-- CAR&#45;&gt;REPAIR -->
<g id="edge13" class="edge">
<title>CAR&#45;&gt;REPAIR</title>
<path fill="none" stroke="black" d="M331.04,-305.26C415.01,-269.26 554.8,-209.33 641.94,-171.97"/>
<polygon fill="black" stroke="black" points="642.07,-171.91 650.84,-172.07 645.75,-170.33 649.42,-168.76 649.42,-168.76 649.42,-168.76 645.75,-170.33 648.01,-165.45 642.07,-171.91 642.07,-171.91"/>
</g>
<!-- COMPENSATION -->
<g id="node14" class="node">
<title>COMPENSATION</title>
<path fill="lightgray" stroke="transparent" d="M548.5,-523C548.5,-523 415.5,-523 415.5,-523 409.5,-523 403.5,-517 403.5,-511 403.5,-511 403.5,-430 403.5,-430 403.5,-424 409.5,-418 415.5,-418 415.5,-418 548.5,-418 548.5,-418 554.5,-418 560.5,-424 560.5,-430 560.5,-430 560.5,-511 560.5,-511 560.5,-517 554.5,-523 548.5,-523"/>
<polygon fill="#1f77b4" stroke="transparent" points="413,-498.5 413,-517.5 552,-517.5 552,-498.5 413,-498.5"/>
<text text-anchor="start" x="415" y="-505.3" font-family="Times,serif" font-weight="bold" font-size="14.00" fill="white">COMPENSATION</text>
<text text-anchor="start" x="415" y="-485.3" font-family="Times,serif" font-size="14.00">보상이력번호 (PK)</text>
<text text-anchor="start" x="415" y="-466.3" font-family="Times,serif" font-size="14.00">차량관리번호 (FK)</text>
<text text-anchor="start" x="415" y="-447.3" font-family="Times,serif" font-size="14.00">보상유형</text>
<text text-anchor="start" x="415" y="-428.3" font-family="Times,serif" font-size="14.00">비용</text>
<polygon fill="none" stroke="lightblue" points="411.5,-422 411.5,-519 552.5,-519 552.5,-422 411.5,-422"/>
</g>
<!-- CAR&#45;&gt;COMPENSATION -->
<g id="edge15" class="edge">
<title>CAR&#45;&gt;COMPENSATION</title>
<path fill="none" stroke="black" d="M331.18,-378.77C351.98,-391.51 374.95,-405.57 396.52,-418.78"/>
<polygon fill="black" stroke="black" points="396.65,-418.86 401.59,-426.1 400.06,-420.94 403.47,-423.03 403.47,-423.03 403.47,-423.03 400.06,-420.94 405.35,-419.96 396.65,-418.86 396.65,-418.86"/>
</g>
<!-- ACCIDENT -->
<g id="node15" class="node">
<title>ACCIDENT</title>
<path fill="lightgray" stroke="transparent" d="M780.5,-388C780.5,-388 661.5,-388 661.5,-388 655.5,-388 649.5,-382 649.5,-376 649.5,-376 649.5,-295 649.5,-295 649.5,-289 655.5,-283 661.5,-283 661.5,-283 780.5,-283 780.5,-283 786.5,-283 792.5,-289 792.5,-295 792.5,-295 792.5,-376 792.5,-376 792.5,-382 786.5,-388 780.5,-388"/>
<polygon fill="#1f77b4" stroke="transparent" points="659,-363.5 659,-382.5 784,-382.5 784,-363.5 659,-363.5"/>
<text text-anchor="start" x="678.5" y="-370.3" font-family="Times,serif" font-weight="bold" font-size="14.00" fill="white">ACCIDENT</text>
<text text-anchor="start" x="661" y="-350.3" font-family="Times,serif" font-size="14.00">사고이력번호 (PK)</text>
<text text-anchor="start" x="661" y="-331.3" font-family="Times,serif" font-size="14.00">대여계약번호 (FK)</text>
<text text-anchor="start" x="661" y="-312.3" font-family="Times,serif" font-size="14.00">차량관리번호 (FK)</text>
<text text-anchor="start" x="661" y="-293.3" font-family="Times,serif" font-size="14.00">사고일시</text>
<polygon fill="none" stroke="lightblue" points="657.5,-287 657.5,-384 784.5,-384 784.5,-287 657.5,-287"/>
</g>
<!-- CAR&#45;&gt;ACCIDENT -->
<g id="edge17" class="edge">
<title>CAR&#45;&gt;ACCIDENT</title>
<path fill="none" stroke="black" d="M331.04,-335.5C414.84,-335.5 554.23,-335.5 641.42,-335.5"/>
<polygon fill="black" stroke="black" points="641.42,-335.5 649.42,-339.1 645.42,-335.5 649.42,-335.5 649.42,-335.5 649.42,-335.5 645.42,-335.5 649.42,-331.9 641.42,-335.5 641.42,-335.5"/>
</g>
<!-- BRANCH -->
<g id="node4" class="node">
<title>BRANCH</title>
<path fill="lightgray" stroke="transparent" d="M103.5,-407C103.5,-407 12.5,-407 12.5,-407 6.5,-407 0.5,-401 0.5,-395 0.5,-395 0.5,-276 0.5,-276 0.5,-270 6.5,-264 12.5,-264 12.5,-264 103.5,-264 103.5,-264 109.5,-264 115.5,-270 115.5,-276 115.5,-276 115.5,-395 115.5,-395 115.5,-401 109.5,-407 103.5,-407"/>
<polygon fill="#1f77b4" stroke="transparent" points="10,-382.5 10,-401.5 107,-401.5 107,-382.5 10,-382.5"/>
<text text-anchor="start" x="22" y="-389.3" font-family="Times,serif" font-weight="bold" font-size="14.00" fill="white">BRANCH</text>
<text text-anchor="start" x="12" y="-369.3" font-family="Times,serif" font-size="14.00">지점번호 (PK)</text>
<text text-anchor="start" x="12" y="-350.3" font-family="Times,serif" font-size="14.00">지점명</text>
<text text-anchor="start" x="12" y="-331.3" font-family="Times,serif" font-size="14.00">주소</text>
<text text-anchor="start" x="12" y="-312.3" font-family="Times,serif" font-size="14.00">연락처</text>
<text text-anchor="start" x="12" y="-293.3" font-family="Times,serif" font-size="14.00">영업시작일시</text>
<text text-anchor="start" x="12" y="-274.3" font-family="Times,serif" font-size="14.00">영업종료일시</text>
<polygon fill="none" stroke="lightblue" points="8.5,-268 8.5,-403 107.5,-403 107.5,-268 8.5,-268"/>
</g>
<!-- BRANCH&#45;&gt;CAR -->
<g id="edge11" class="edge">
<title>BRANCH&#45;&gt;CAR</title>
<path fill="none" stroke="black" d="M115.64,-335.5C135.55,-335.5 158.31,-335.5 179.72,-335.5"/>
<polygon fill="black" stroke="black" points="179.85,-335.5 187.85,-339.1 183.85,-335.5 187.85,-335.5 187.85,-335.5 187.85,-335.5 183.85,-335.5 187.85,-331.9 179.85,-335.5 179.85,-335.5"/>
</g>
<!-- RENTAL&#45;&gt;RENTAL_DRIVER -->
<g id="edge4" class="edge">
<title>RENTAL&#45;&gt;RENTAL_DRIVER</title>
<path fill="none" stroke="black" d="M507.32,-832.15C529.91,-916.9 569.77,-1034.12 633,-1121.5 638.31,-1128.83 644.57,-1135.82 651.27,-1142.35"/>
<polygon fill="black" stroke="black" points="651.69,-1142.74 655.07,-1150.83 654.61,-1145.47 657.53,-1148.21 657.53,-1148.21 657.53,-1148.21 654.61,-1145.47 659.99,-1145.58 651.69,-1142.74 651.69,-1142.74"/>
</g>
<!-- PAYMENT -->
<g id="node7" class="node">
<title>PAYMENT</title>
<path fill="lightgray" stroke="transparent" d="M780.5,-896.5C780.5,-896.5 661.5,-896.5 661.5,-896.5 655.5,-896.5 649.5,-890.5 649.5,-884.5 649.5,-884.5 649.5,-632.5 649.5,-632.5 649.5,-626.5 655.5,-620.5 661.5,-620.5 661.5,-620.5 780.5,-620.5 780.5,-620.5 786.5,-620.5 792.5,-626.5 792.5,-632.5 792.5,-632.5 792.5,-884.5 792.5,-884.5 792.5,-890.5 786.5,-896.5 780.5,-896.5"/>
<polygon fill="#1f77b4" stroke="transparent" points="659,-872.5 659,-891.5 784,-891.5 784,-872.5 659,-872.5"/>
<text text-anchor="start" x="681.5" y="-879.3" font-family="Times,serif" font-weight="bold" font-size="14.00" fill="white">PAYMENT</text>
<text text-anchor="start" x="661" y="-859.3" font-family="Times,serif" font-size="14.00">결제번호 (PK)</text>
<text text-anchor="start" x="661" y="-840.3" font-family="Times,serif" font-size="14.00">대여계약번호 (FK)</text>
<text text-anchor="start" x="661" y="-821.3" font-family="Times,serif" font-size="14.00">결제일시</text>
<text text-anchor="start" x="661" y="-802.3" font-family="Times,serif" font-size="14.00">결제상태</text>
<text text-anchor="start" x="661" y="-783.3" font-family="Times,serif" font-size="14.00">결제유형</text>
<text text-anchor="start" x="661" y="-764.3" font-family="Times,serif" font-size="14.00">결제수단</text>
<text text-anchor="start" x="661" y="-745.3" font-family="Times,serif" font-size="14.00">총결제금액</text>
<text text-anchor="start" x="661" y="-726.3" font-family="Times,serif" font-size="14.00">대여금액</text>
<text text-anchor="start" x="661" y="-707.3" font-family="Times,serif" font-size="14.00">보험료</text>
<text text-anchor="start" x="661" y="-688.3" font-family="Times,serif" font-size="14.00">할인금액</text>
<text text-anchor="start" x="661" y="-669.3" font-family="Times,serif" font-size="14.00">마일리지사용</text>
<text text-anchor="start" x="661" y="-650.3" font-family="Times,serif" font-size="14.00">추가결제금액</text>
<text text-anchor="start" x="661" y="-631.3" font-family="Times,serif" font-size="14.00">보상금</text>
<polygon fill="none" stroke="lightblue" points="657.5,-624.5 657.5,-892.5 784.5,-892.5 784.5,-624.5 657.5,-624.5"/>
</g>
<!-- RENTAL&#45;&gt;PAYMENT -->
<g id="edge6" class="edge">
<title>RENTAL&#45;&gt;PAYMENT</title>
<path fill="none" stroke="black" d="M561.26,-734.39C586.93,-738.29 615.46,-742.62 641.17,-746.53"/>
<polygon fill="black" stroke="black" points="641.51,-746.58 648.87,-751.34 645.46,-747.18 649.41,-747.78 649.41,-747.78 649.41,-747.78 645.46,-747.18 649.96,-744.22 641.51,-746.58 641.51,-746.58"/>
</g>
<!-- RENTAL&#45;&gt;REPAIR -->
<g id="edge14" class="edge">
<title>RENTAL&#45;&gt;REPAIR</title>
<path fill="none" stroke="black" d="M536.01,-612.97C545.04,-592.17 553.81,-570.37 561,-549.5 604.83,-422.31 575.73,-377.23 633,-255.5 636.59,-247.87 640.72,-240.25 645.18,-232.76"/>
<polygon fill="black" stroke="black" points="645.19,-232.74 652.44,-227.8 647.28,-229.33 649.37,-225.92 649.37,-225.92 649.37,-225.92 647.28,-229.33 646.3,-224.04 645.19,-232.74 645.19,-232.74"/>
</g>
<!-- RENTAL&#45;&gt;ACCIDENT -->
<g id="edge16" class="edge">
<title>RENTAL&#45;&gt;ACCIDENT</title>
<path fill="none" stroke="black" d="M534.14,-612.84C572.28,-531.94 619.94,-433 633,-415.5 638.35,-408.32 644.41,-401.27 650.78,-394.5"/>
<polygon fill="black" stroke="black" points="651.14,-394.13 659.28,-390.87 653.92,-391.25 656.7,-388.37 656.7,-388.37 656.7,-388.37 653.92,-391.25 654.11,-385.87 651.14,-394.13 651.14,-394.13"/>
</g>
<!-- DISCOUNT -->
<g id="node8" class="node">
<title>DISCOUNT</title>
<path fill="lightgray" stroke="transparent" d="M1026.5,-930.5C1026.5,-930.5 907.5,-930.5 907.5,-930.5 901.5,-930.5 895.5,-924.5 895.5,-918.5 895.5,-918.5 895.5,-818.5 895.5,-818.5 895.5,-812.5 901.5,-806.5 907.5,-806.5 907.5,-806.5 1026.5,-806.5 1026.5,-806.5 1032.5,-806.5 1038.5,-812.5 1038.5,-818.5 1038.5,-818.5 1038.5,-918.5 1038.5,-918.5 1038.5,-924.5 1032.5,-930.5 1026.5,-930.5"/>
<polygon fill="#1f77b4" stroke="transparent" points="905,-906.5 905,-925.5 1030,-925.5 1030,-906.5 905,-906.5"/>
<text text-anchor="start" x="923.5" y="-913.3" font-family="Times,serif" font-weight="bold" font-size="14.00" fill="white">DISCOUNT</text>
<text text-anchor="start" x="907" y="-893.3" font-family="Times,serif" font-size="14.00">할인이력번호 (PK)</text>
<text text-anchor="start" x="907" y="-874.3" font-family="Times,serif" font-size="14.00">결제번호 (FK)</text>
<text text-anchor="start" x="907" y="-855.3" font-family="Times,serif" font-size="14.00">할인정책번호 (FK)</text>
<text text-anchor="start" x="907" y="-836.3" font-family="Times,serif" font-size="14.00">할인금액</text>
<text text-anchor="start" x="907" y="-817.3" font-family="Times,serif" font-size="14.00">할인일시</text>
<polygon fill="none" stroke="lightblue" points="903.5,-810.5 903.5,-926.5 1030.5,-926.5 1030.5,-810.5 903.5,-810.5"/>
</g>
<!-- PAYMENT&#45;&gt;DISCOUNT -->
<g id="edge7" class="edge">
<title>PAYMENT&#45;&gt;DISCOUNT</title>
<path fill="none" stroke="black" d="M792.57,-790.32C822.29,-803.71 856.98,-819.35 887.5,-833.11"/>
<polygon fill="black" stroke="black" points="887.87,-833.28 893.68,-839.85 891.51,-834.92 895.16,-836.56 895.16,-836.56 895.16,-836.56 891.51,-834.92 896.64,-833.28 887.87,-833.28 887.87,-833.28"/>
</g>
<!-- MILEAGE -->
<g id="node9" class="node">
<title>MILEAGE</title>
<path fill="lightgray" stroke="transparent" d="M1041,-719C1041,-719 893,-719 893,-719 887,-719 881,-713 881,-707 881,-707 881,-588 881,-588 881,-582 887,-576 893,-576 893,-576 1041,-576 1041,-576 1047,-576 1053,-582 1053,-588 1053,-588 1053,-707 1053,-707 1053,-713 1047,-719 1041,-719"/>
<polygon fill="#1f77b4" stroke="transparent" points="890,-694.5 890,-713.5 1044,-713.5 1044,-694.5 890,-694.5"/>
<text text-anchor="start" x="929" y="-701.3" font-family="Times,serif" font-weight="bold" font-size="14.00" fill="white">MILEAGE</text>
<text text-anchor="start" x="892" y="-681.3" font-family="Times,serif" font-size="14.00">마일리지이력번호 (PK)</text>
<text text-anchor="start" x="892" y="-662.3" font-family="Times,serif" font-size="14.00">마일리지정책번호 (FK)</text>
<text text-anchor="start" x="892" y="-643.3" font-family="Times,serif" font-size="14.00">결제번호 (FK)</text>
<text text-anchor="start" x="892" y="-624.3" font-family="Times,serif" font-size="14.00">이력구분</text>
<text text-anchor="start" x="892" y="-605.3" font-family="Times,serif" font-size="14.00">적립/사용일시</text>
<text text-anchor="start" x="892" y="-586.3" font-family="Times,serif" font-size="14.00">적립/사용금액</text>
<polygon fill="none" stroke="lightblue" points="889,-580 889,-715 1045,-715 1045,-580 889,-580"/>
</g>
<!-- PAYMENT&#45;&gt;MILEAGE -->
<g id="edge9" class="edge">
<title>PAYMENT&#45;&gt;MILEAGE</title>
<path fill="none" stroke="black" d="M792.57,-726.39C817.79,-714.92 846.59,-701.82 873.39,-689.63"/>
<polygon fill="black" stroke="black" points="873.6,-689.53 882.38,-689.5 877.24,-687.88 880.89,-686.22 880.89,-686.22 880.89,-686.22 877.24,-687.88 879.39,-682.94 873.6,-689.53 873.6,-689.53"/>
</g>
<!-- DISCOUNT_POLICY -->
<g id="node10" class="node">
<title>DISCOUNT_POLICY</title>
<path fill="lightgray" stroke="transparent" d="M797,-1094C797,-1094 645,-1094 645,-1094 639,-1094 633,-1088 633,-1082 633,-1082 633,-963 633,-963 633,-957 639,-951 645,-951 645,-951 797,-951 797,-951 803,-951 809,-957 809,-963 809,-963 809,-1082 809,-1082 809,-1088 803,-1094 797,-1094"/>
<polygon fill="#1f77b4" stroke="transparent" points="642,-1069.5 642,-1088.5 800,-1088.5 800,-1069.5 642,-1069.5"/>
<text text-anchor="start" x="644" y="-1076.3" font-family="Times,serif" font-weight="bold" font-size="14.00" fill="white">DISCOUNT_POLICY</text>
<text text-anchor="start" x="644" y="-1056.3" font-family="Times,serif" font-size="14.00">할인정책번호 (PK)</text>
<text text-anchor="start" x="644" y="-1037.3" font-family="Times,serif" font-size="14.00">할인유형</text>
<text text-anchor="start" x="644" y="-1018.3" font-family="Times,serif" font-size="14.00">할인방식</text>
<text text-anchor="start" x="644" y="-999.3" font-family="Times,serif" font-size="14.00">할인금액/할인율</text>
<text text-anchor="start" x="644" y="-980.3" font-family="Times,serif" font-size="14.00">시작일</text>
<text text-anchor="start" x="644" y="-961.3" font-family="Times,serif" font-size="14.00">종료일</text>
<polygon fill="none" stroke="lightblue" points="641,-955 641,-1090 801,-1090 801,-955 641,-955"/>
</g>
<!-- DISCOUNT_POLICY&#45;&gt;DISCOUNT -->
<g id="edge8" class="edge">
<title>DISCOUNT_POLICY&#45;&gt;DISCOUNT</title>
<path fill="none" stroke="black" d="M809.06,-967.55C834.95,-951.21 863.14,-933.42 888.39,-917.48"/>
<polygon fill="black" stroke="black" points="888.67,-917.31 897.35,-916.08 892.05,-915.17 895.43,-913.04 895.43,-913.04 895.43,-913.04 892.05,-915.17 893.51,-909.99 888.67,-917.31 888.67,-917.31"/>
</g>
<!-- MILEAGE_POLICY -->
<g id="node11" class="node">
<title>MILEAGE_POLICY</title>
<path fill="lightgray" stroke="transparent" d="M795,-566.5C795,-566.5 647,-566.5 647,-566.5 641,-566.5 635,-560.5 635,-554.5 635,-554.5 635,-454.5 635,-454.5 635,-448.5 641,-442.5 647,-442.5 647,-442.5 795,-442.5 795,-442.5 801,-442.5 807,-448.5 807,-454.5 807,-454.5 807,-554.5 807,-554.5 807,-560.5 801,-566.5 795,-566.5"/>
<polygon fill="#1f77b4" stroke="transparent" points="644,-542.5 644,-561.5 798,-561.5 798,-542.5 644,-542.5"/>
<text text-anchor="start" x="649.5" y="-549.3" font-family="Times,serif" font-weight="bold" font-size="14.00" fill="white">MILEAGE_POLICY</text>
<text text-anchor="start" x="646" y="-529.3" font-family="Times,serif" font-size="14.00">마일리지정책번호 (PK)</text>
<text text-anchor="start" x="646" y="-510.3" font-family="Times,serif" font-size="14.00">적립방식</text>
<text text-anchor="start" x="646" y="-491.3" font-family="Times,serif" font-size="14.00">적립금액/적립율</text>
<text text-anchor="start" x="646" y="-472.3" font-family="Times,serif" font-size="14.00">시작일</text>
<text text-anchor="start" x="646" y="-453.3" font-family="Times,serif" font-size="14.00">종료일</text>
<polygon fill="none" stroke="lightblue" points="643,-446.5 643,-562.5 799,-562.5 799,-446.5 643,-446.5"/>
</g>
<!-- MILEAGE_POLICY&#45;&gt;MILEAGE -->
<g id="edge10" class="edge">
<title>MILEAGE_POLICY&#45;&gt;MILEAGE</title>
<path fill="none" stroke="black" d="M807.34,-554.51C828.79,-567.09 851.91,-580.64 873.69,-593.4"/>
<polygon fill="black" stroke="black" points="873.81,-593.47 878.89,-600.62 877.26,-595.49 880.71,-597.51 880.71,-597.51 880.71,-597.51 877.26,-595.49 882.53,-594.41 873.81,-593.47 873.81,-593.47"/>
</g>
</g>
</svg>
